# xmcd
#
# Track frame offsets:
#	150
#	20732
#	46247
#	61417
#	75657
#	96817
#	123487
#	140395
#	154672
#	168552
#	183682
#	203265
#	218382
#	233652
#	253027
#	271142
#	292810
#
# Disc length: 4157
#
# Revision: 1
# Processed by: cddbd v1.5.1PL0 Copyright (c) Steve Scherf et al.
# Submitted via: CDex 1.50Beta5
# Normalized: r0:DSETVAR1,TDELIM( - )
#
DISCID=e2103b11
DTITLE=Various Artist - Americana, the best of new American music [CD1/2)
DYEAR=2002
DGENRE=Country
TTITLE0=Ryan Adams - Harder now that's it's over
TTITLE1=Mary Gauthier - Drag queens in limousines
TTITLE2=Alison Krauss and Union State - Let me touch you for a while
TTITLE3=Stevie Earle - My old friend the blues
TTITLE4=Emmylou Harrus and Linda Ronstadt - For a dancer
TTITLE5=Rodney Crowell - Wandering boy
TTITLE6=Rob Crosby - She's natural
TTITLE7=Slaid Cleaves - Broke down
TTITLE8=Robert Earl Keen - My home ain't in the hall of fame
TTITLE9=The Delevantes - Long about that time
TTITLE10=Jimmy Lafave - The moon's a harsh mistress
TTITLE11=Buddy Miller - That's how i got to Memphis
TTITLE12=Cathryn Craig - Walk slowly through this life
TTITLE13=Larry John Mcnally - Over fences
TTITLE14=Mark Wills - Wish you were here
TTITLE15=John Gorka - Let them in
TTITLE16=Vince Gill - Feels like love
EXTD=YEAR: 2002
EXTT0=
EXTT1=
EXTT2=
EXTT3=
EXTT4=
EXTT5=
EXTT6=
EXTT7=
EXTT8=
EXTT9=
EXTT10=
EXTT11=
EXTT12=
EXTT13=
EXTT14=
EXTT15=
EXTT16=
PLAYORDER=
